<svg width="243" height="226" viewBox="0 0 243 226" fill="none" xmlns="http://www.w3.org/2000/svg">
<path d="M75.7092 103.78V121.895H71.2658C66.8223 121.895 62.5498 120.528 58.4482 117.794C55.0302 115.401 52.2957 112.382 50.2449 108.736C49.2195 113.065 46.8269 116.483 43.0671 118.99C38.9654 121.838 33.2118 123.262 25.8061 123.262C19.1979 123.262 14.4696 121.61 11.6213 118.306C9.57046 116.142 8.54505 113.179 8.54505 109.419C8.54505 107.027 8.60202 104.748 8.71596 102.583C8.82989 100.419 8.94382 98.9375 9.05776 98.1399C10.6528 100.533 12.9315 102.356 15.8938 103.609C18.97 104.748 22.1602 105.318 25.4643 105.318C29.9077 105.318 34.3511 104.691 38.7946 103.438C41.9847 102.412 44.4343 101.216 46.1433 99.849C44.89 97.1145 43.9216 94.665 43.238 92.5002C42.6683 90.2215 42.0417 87.4871 41.3581 84.297C40.3327 78.8281 39.82 74.2138 39.82 70.454L45.8015 61.3962C46.8269 66.865 47.9662 71.9921 49.2195 76.7773C50.4728 81.4486 52.1248 85.8351 54.1756 89.9367C58.8469 99.1654 64.8285 103.78 72.1203 103.78H75.7092ZM98.3295 66.0105C99.0131 75.0113 99.4689 83.8412 99.6968 92.5002C99.8107 94.7789 99.8677 97.6272 99.8677 101.045C99.8677 105.147 99.5828 108.337 99.0131 110.616C97.9877 113.92 96.0509 116.654 93.2025 118.819C90.3542 120.87 86.7652 121.895 82.4357 121.895H72.8653C70.3587 121.895 68.251 121.041 66.5419 119.332C64.719 117.509 63.8075 115.344 63.8075 112.837C63.8075 110.331 64.719 108.223 66.5419 106.514C68.251 104.691 70.3587 103.78 72.8653 103.78H79.7013C81.6382 103.78 83.3472 103.495 84.8284 102.925C86.3095 102.356 87.4488 101.786 88.2464 101.216C89.0439 100.533 89.5566 100.077 89.7845 99.849C89.7845 93.3547 88.816 81.3916 86.8792 63.9597C85.8538 55.0729 84.9423 47.8381 84.1448 42.2553C83.3472 36.5586 82.2079 30.8049 80.7267 24.9943L78.1632 22.6017C78.1632 22.032 78.2202 20.8357 78.3341 19.0127C78.448 17.0759 78.7899 15.1959 79.3595 13.373C80.8407 8.58777 83.632 5.91032 87.7337 5.34065C89.5566 9.44228 91.1517 12.5185 92.5189 14.5693C93.8861 16.6201 95.88 18.6709 98.5004 20.7218C97.0193 22.2029 95.9939 23.4562 95.4242 24.4816C94.8546 25.507 94.5697 26.8172 94.5697 28.4123C94.5697 29.5516 94.6267 30.4631 94.7406 31.1467C96.4496 44.477 97.6459 56.0983 98.3295 66.0105ZM149.287 103.78V121.895H140.23C133.166 121.895 127.811 119.844 124.165 115.743C120.519 111.983 118.639 106.172 118.525 98.3108C118.07 72.6757 117.671 55.7565 117.329 47.5532C116.759 37.527 116.019 30.4631 115.107 26.3615C114.196 22.2599 113.683 19.9812 113.569 19.5254C118.81 13.7148 122.456 9.04351 124.507 5.51155H126.728C126.842 7.22057 126.956 10.5247 127.07 15.4238C127.298 20.323 127.469 24.2537 127.583 27.216L127.754 32.1721L128.608 54.902C128.608 59.0036 128.665 64.1876 128.779 70.454C128.893 76.6064 129.064 82.2461 129.292 87.3732C129.52 93.0699 130.317 97.1145 131.685 99.5072C133.394 102.356 135.843 103.78 139.033 103.78H149.287ZM166.689 41.4399C168.626 42.4653 170.619 43.8895 172.67 45.7124C174.835 47.5354 176.43 49.2444 177.455 50.8395C176.43 52.3206 175.234 53.9157 173.866 55.6247C172.499 57.3337 170.733 59.2136 168.569 61.2644C163.897 56.5931 160.251 53.5169 157.631 52.0358C162.416 46.5669 165.435 43.035 166.689 41.4399ZM232.604 87.0314L223.718 103.267H217.394C212.609 103.267 207.596 104.349 202.355 106.514C197.228 108.565 190.962 111.47 183.556 115.23C181.049 116.483 178.884 117.452 177.062 118.135C175.353 118.819 173.245 119.503 170.738 120.186C170.738 120.414 170.795 121.61 170.909 123.775C171.023 125.94 170.51 128.219 169.371 130.611C168.801 127.649 167.605 124.459 165.782 121.041C162.136 121.61 158.433 121.895 154.674 121.895H146.299C143.793 121.895 141.685 121.041 139.976 119.332C138.153 117.509 137.242 115.344 137.242 112.837C137.242 110.331 138.153 108.223 139.976 106.514C141.685 104.691 143.793 103.78 146.299 103.78H154.674L149.205 95.7473V90.1076C149.205 88.0568 149.603 85.892 150.401 83.6134C151.199 81.3347 152.509 79.2839 154.332 77.4609C157.978 73.815 162.706 71.9921 168.516 71.9921C171.593 71.9921 174.669 72.5048 177.745 73.5302C180.935 74.4417 185.094 75.9228 190.221 77.9736L198.082 81.0498C209.02 85.0375 219.16 87.0314 228.503 87.0314H232.604ZM163.731 103.78C171.365 103.666 177.289 102.925 181.505 101.558C185.834 100.191 189.936 98.4248 193.81 96.26C193.012 95.8043 191.075 94.8928 187.999 93.5256C185.037 92.1584 181.505 90.8482 177.403 89.5949C173.416 88.2277 169.827 87.5441 166.637 87.5441C161.396 87.5441 157.693 89.5379 155.528 93.5256C158.946 97.2854 161.68 100.703 163.731 103.78Z" fill="#C32306"/>
<path d="M75.7092 98.439V116.555H71.2658C66.8223 116.555 62.5498 115.187 58.4482 112.453C55.0302 110.06 52.2957 107.041 50.2449 103.395C49.2195 107.725 46.8269 111.143 43.0671 113.649C38.9654 116.498 33.2118 117.922 25.8061 117.922C19.1979 117.922 14.4696 116.27 11.6213 112.966C9.57046 110.801 8.54505 107.839 8.54505 104.079C8.54505 101.686 8.60202 99.4075 8.71596 97.2427C8.82989 95.078 8.94382 93.5968 9.05776 92.7993C10.6528 95.1919 12.9315 97.0149 15.8938 98.2681C18.97 99.4075 22.1602 99.9771 25.4643 99.9771C29.9077 99.9771 34.3511 99.3505 38.7946 98.0972C41.9847 97.0718 44.4343 95.8755 46.1433 94.5083C44.89 91.7739 43.9216 89.3243 43.238 87.1596C42.6683 84.8809 42.0417 82.1465 41.3581 78.9563C40.3327 73.4875 39.82 68.8731 39.82 65.1133L45.8015 56.0556C46.8269 61.5244 47.9662 66.6514 49.2195 71.4367C50.4728 76.108 52.1248 80.4944 54.1756 84.596C58.8469 93.8247 64.8285 98.439 72.1203 98.439H75.7092ZM98.3295 60.6699C99.0131 69.6707 99.4689 78.5006 99.6968 87.1596C99.8107 89.4382 99.8677 92.2866 99.8677 95.7046C99.8677 99.8062 99.5828 102.996 99.0131 105.275C97.9877 108.579 96.0509 111.314 93.2025 113.478C90.3542 115.529 86.7652 116.555 82.4357 116.555H72.8653C70.3587 116.555 68.251 115.7 66.5419 113.991C64.719 112.168 63.8075 110.003 63.8075 107.497C63.8075 104.99 64.719 102.882 66.5419 101.173C68.251 99.3505 70.3587 98.439 72.8653 98.439H79.7013C81.6382 98.439 83.3472 98.1542 84.8284 97.5845C86.3095 97.0149 87.4488 96.4452 88.2464 95.8755C89.0439 95.1919 89.5566 94.7362 89.7845 94.5083C89.7845 88.0141 88.816 76.051 86.8792 58.6191C85.8538 49.7322 84.9423 42.4974 84.1448 36.9146C83.3472 31.2179 82.2079 25.4643 80.7267 19.6536L78.1632 17.261C78.1632 16.6913 78.2202 15.495 78.3341 13.6721C78.448 11.7352 78.7899 9.8553 79.3595 8.03235C80.8407 3.24712 83.632 0.569668 87.7337 -1.94239e-06C89.5566 4.10163 91.1517 7.17785 92.5189 9.22866C93.8861 11.2795 95.88 13.3303 98.5004 15.3811C97.0193 16.8622 95.9939 18.1155 95.4242 19.1409C94.8546 20.1663 94.5697 21.4766 94.5697 23.0716C94.5697 24.211 94.6267 25.1225 94.7406 25.8061C96.4496 39.1364 97.6459 50.7576 98.3295 60.6699ZM149.287 98.439V116.555H140.23C133.166 116.555 127.811 114.504 124.165 110.402C120.519 106.642 118.639 100.832 118.525 92.9702C118.07 67.335 117.671 50.4158 117.329 42.2126C116.759 32.1864 116.019 25.1225 115.107 21.0208C114.196 16.9192 113.683 14.6405 113.569 14.1848C118.81 8.37415 122.456 3.70285 124.507 0.170897H126.728C126.842 1.87991 126.956 5.184 127.07 10.0832C127.298 14.9823 127.469 18.9131 127.583 21.8753L127.754 26.8315L128.608 49.5613C128.608 53.6629 128.665 58.8469 128.779 65.1133C128.893 71.2658 129.064 76.9055 129.292 82.0325C129.52 87.7292 130.317 91.7739 131.685 94.1665C133.394 97.0149 135.843 98.439 139.033 98.439H149.287ZM166.689 36.0993C168.626 37.1247 170.619 38.5488 172.67 40.3718C174.835 42.1947 176.43 43.9037 177.455 45.4988C176.43 46.98 175.234 48.575 173.866 50.284C172.499 51.9931 170.733 53.873 168.569 55.9238C163.897 51.2525 160.251 48.1763 157.631 46.6951C162.416 41.2263 165.435 37.6943 166.689 36.0993ZM232.604 81.6907L223.718 97.9263H217.394C212.609 97.9263 207.596 99.0087 202.355 101.173C197.228 103.224 190.962 106.13 183.556 109.889C181.049 111.143 178.884 112.111 177.062 112.795C175.353 113.478 173.245 114.162 170.738 114.846C170.738 115.073 170.795 116.27 170.909 118.434C171.023 120.599 170.51 122.878 169.371 125.271C168.801 122.308 167.605 119.118 165.782 115.7C162.136 116.27 158.433 116.555 154.674 116.555H146.299C143.793 116.555 141.685 115.7 139.976 113.991C138.153 112.168 137.242 110.003 137.242 107.497C137.242 104.99 138.153 102.882 139.976 101.173C141.685 99.3505 143.793 98.439 146.299 98.439H154.674L149.205 90.4067V84.7669C149.205 82.7161 149.603 80.5514 150.401 78.2727C151.199 75.994 152.509 73.9432 154.332 72.1203C157.978 68.4744 162.706 66.6514 168.516 66.6514C171.593 66.6514 174.669 67.1641 177.745 68.1895C180.935 69.101 185.094 70.5822 190.221 72.633L198.082 75.7092C209.02 79.6969 219.16 81.6907 228.503 81.6907H232.604ZM163.731 98.439C171.365 98.3251 177.289 97.5845 181.505 96.2173C185.834 94.8501 189.936 93.0841 193.81 90.9194C193.012 90.4636 191.075 89.5522 187.999 88.185C185.037 86.8178 181.505 85.5075 177.403 84.2542C173.416 82.887 169.827 82.2034 166.637 82.2034C161.396 82.2034 157.693 84.1973 155.528 88.185C158.946 91.9448 161.68 95.3628 163.731 98.439Z" fill="url(#paint0_linear_11_5)"/>
<defs>
<linearGradient id="paint0_linear_11_5" x1="243" y1="66.139" x2="-4.61953e-07" y2="66.139" gradientUnits="userSpaceOnUse">
<stop stop-color="#1B6212"/>
<stop offset="1" stop-color="#07340B"/>
</linearGradient>
</defs>
</svg>
